<svg id="圖層_1" data-name="圖層 1" xmlns="http://www.w3.org/2000/svg" viewBox="0 0 80 80"><defs><style>.cls-1{fill:#3795c4;}.cls-2{fill:#50c98c;}.cls-3{fill:none;}</style></defs><path class="cls-1" d="M65,65H15a5,5,0,0,1-5-5V20a5,5,0,0,1,5-5H65a5,5,0,0,1,5,5V60A5,5,0,0,1,65,65ZM15,17a3,3,0,0,0-3,3V60a3,3,0,0,0,3,3H65a3,3,0,0,0,3-3V20a3,3,0,0,0-3-3Z"/><path class="cls-1" d="M66,26.68H14a1,1,0,0,1,0-2H66a1,1,0,0,1,0,2Z"/><path class="cls-2" d="M62,59H18a3,3,0,0,1-3-3V34a3,3,0,0,1,3-3H62a3,3,0,0,1,3,3V56A3,3,0,0,1,62,59ZM18,33a1,1,0,0,0-1,1V56a1,1,0,0,0,1,1H62a1,1,0,0,0,1-1V34a1,1,0,0,0-1-1Z"/><path class="cls-2" d="M64,39.5H16a1,1,0,0,1,0-2H64a1,1,0,0,1,0,2Z"/><path class="cls-2" d="M64,46H16a1,1,0,0,1,0-2H64a1,1,0,0,1,0,2Z"/><path class="cls-2" d="M64,52.5H16a1,1,0,0,1,0-2H64a1,1,0,0,1,0,2Z"/><path class="cls-2" d="M25.6,59a1,1,0,0,1-1-1V32a1,1,0,0,1,2,0V58A1,1,0,0,1,25.6,59Z"/><path class="cls-2" d="M35.2,59a1,1,0,0,1-1-1V32a1,1,0,0,1,2,0V58A1,1,0,0,1,35.2,59Z"/><path class="cls-2" d="M44.8,59a1,1,0,0,1-1-1V32a1,1,0,0,1,2,0V58A1,1,0,0,1,44.8,59Z"/><path class="cls-2" d="M54.4,59a1,1,0,0,1-1-1V32a1,1,0,0,1,2,0V58A1,1,0,0,1,54.4,59Z"/><path class="cls-1" d="M23,21a1,1,0,0,1-1-1V12.38a1,1,0,0,1,2,0V20A1,1,0,0,1,23,21Z"/><path class="cls-1" d="M56,21a1,1,0,0,1-1-1V12.38a1,1,0,1,1,2,0V20A1,1,0,0,1,56,21Z"/><rect class="cls-3" width="80" height="80"/></svg>