<svg id="圖層_1" data-name="圖層 1" xmlns="http://www.w3.org/2000/svg" viewBox="0 0 80 80"><defs><style>.cls-1{fill:#3795c4;}.cls-2{fill:#50c98c;}.cls-3{fill:none;}</style></defs><path class="cls-1" d="M23.34,34.56a1,1,0,0,1-.71-.3,1,1,0,0,1,0-1.41L33.47,22.09a1,1,0,0,1,1.16-.18l11.14,5.68,11.57-9.88a1,1,0,0,1,1.3,1.52L46.56,29.55a1,1,0,0,1-1.11.13L34.36,24,24,34.27A1,1,0,0,1,23.34,34.56Z"/><path class="cls-2" d="M25.56,62a1,1,0,0,1-1-1V48.1h-4V61a1,1,0,0,1-2,0V47.1a1,1,0,0,1,1-1h6a1,1,0,0,1,1,1V61A1,1,0,0,1,25.56,62Z"/><path class="cls-2" d="M49.7,62a1,1,0,0,1-1-1V41.88h-4V61a1,1,0,0,1-2,0V40.88a1,1,0,0,1,1-1h6a1,1,0,0,1,1,1V61A1,1,0,0,1,49.7,62Z"/><path class="cls-2" d="M37.62,62a1,1,0,0,1-1-1V36.23h-4V61a1,1,0,0,1-2,0V35.23a1,1,0,0,1,1-1h6a1,1,0,0,1,1,1V61A1,1,0,0,1,37.62,62Z"/><path class="cls-2" d="M61.78,62a1,1,0,0,1-1-1V29.44H56.73V61a1,1,0,0,1-2,0V28.44a1,1,0,0,1,1-1h6.05a1,1,0,0,1,1,1V61A1,1,0,0,1,61.78,62Z"/><path class="cls-1" d="M65.86,62.53H14.14a1,1,0,0,1-1-1V21.37a1,1,0,0,1,2,0V60.53H65.86a1,1,0,0,1,0,2Z"/><rect class="cls-3" width="80" height="80"/></svg>