<svg id="圖層_1" data-name="圖層 1" xmlns="http://www.w3.org/2000/svg" viewBox="0 0 80 80"><defs><style>.cls-1{fill:#50c98c;}.cls-2{fill:#3795c4;}.cls-3{fill:none;}</style></defs><path class="cls-1" d="M36.34,43.28a1,1,0,0,1-.65-.24l-11.62-10H17a1,1,0,0,1,0-2h7.44a1,1,0,0,1,.65.24l11.15,9.56,20.92-24a1,1,0,0,1,.75-.34h8.18a1,1,0,0,1,0,2H58.37L37.09,42.93A1,1,0,0,1,36.34,43.28Z"/><path class="cls-2" d="M35.6,56.14A21.57,21.57,0,1,1,57.17,34.57,21.59,21.59,0,0,1,35.6,56.14ZM35.6,15A19.57,19.57,0,1,0,55.17,34.57,19.59,19.59,0,0,0,35.6,15Z"/><path class="cls-2" d="M35,50.16a14.81,14.81,0,0,1-13.26-7.58,1,1,0,0,1,1.74-1c3.76,6.56,11,7.61,16.57,5.74,5-1.71,10.57-6.51,9.54-14.43a1,1,0,0,1,.86-1.12,1,1,0,0,1,1.12.86c1.12,8.54-4.66,14.48-10.88,16.58A17.91,17.91,0,0,1,35,50.16Z"/><path class="cls-2" d="M45.47,24.21a1,1,0,0,1-.64-.24,14.24,14.24,0,0,0-16.18-1.56,1,1,0,0,1-1-1.74,16.2,16.2,0,0,1,18.45,1.78,1,1,0,0,1-.65,1.76Z"/><path class="cls-2" d="M53.33,69.24a4,4,0,0,1-3.45-2l-6.7-11.62a1,1,0,0,1,1.73-1l6.7,11.61a2,2,0,0,0,3.42-2l-6.69-11.6a1,1,0,0,1,1.73-1l6.7,11.61a4,4,0,0,1-3.44,5.95Z"/><rect class="cls-3" width="80" height="80"/></svg>