<svg id="圖層_1" data-name="圖層 1" xmlns="http://www.w3.org/2000/svg" viewBox="0 0 80 80"><defs><style>.cls-1{fill:#3795c4;}.cls-2{fill:#50c98c;}.cls-3{fill:none;}</style></defs><g id="naming"><path class="cls-1" d="M27.58,68.17h0a5.09,5.09,0,0,1-5.08-5.09V34.19a11,11,0,0,1-5.4-6.68,11,11,0,0,1,7.54-13.6,1,1,0,0,1,.88.16,1,1,0,0,1,.4.8v7.75a1.87,1.87,0,0,0,0,.34,1.82,1.82,0,0,0,2.12,1.46,1.93,1.93,0,0,0,1.55-1.93V15a1,1,0,0,1,1.31-.95A11,11,0,0,1,32.67,34.2V63.1A5.09,5.09,0,0,1,27.58,68.17ZM23.9,16.3A9,9,0,0,0,19,27a9,9,0,0,0,4.9,5.7,1,1,0,0,1,.58.91V63.08a3.1,3.1,0,0,0,3.09,3.09h0a3.09,3.09,0,0,0,3.09-3.07l1,0h-1V33.58a1,1,0,0,1,.58-.9A9,9,0,0,0,31.6,16.5v6a3.92,3.92,0,0,1-3.17,3.91,3.78,3.78,0,0,1-2.87-.6A3.83,3.83,0,0,1,24,23.33a4.28,4.28,0,0,1-.06-.72Z"/><path class="cls-1" d="M55.78,39.88H50.05a1,1,0,0,1-1-1V16.8a1.09,1.09,0,0,1,.13-.5l2.87-5a1,1,0,0,1,.87-.5h0a1,1,0,0,1,.86.5l2.87,5a1,1,0,0,1,.13.5V38.88A1,1,0,0,1,55.78,39.88Zm-4.73-2h3.73V17.07l-1.86-3.26-1.87,3.26Z"/><path class="cls-2" d="M52.92,68.7a6.6,6.6,0,0,1-6.59-6.56V43.47a1,1,0,0,1,.25-.67l1.16-1.35L46.5,39.54a1,1,0,0,1,0-1,1,1,0,0,1,.9-.54H58.47a1,1,0,0,1,.89.54,1,1,0,0,1,0,1l-1.25,1.92,1.18,1.4a1,1,0,0,1,.24.66V62.13A6.57,6.57,0,0,1,52.92,68.7ZM48.37,43.85V62.13a4.54,4.54,0,0,0,9.08,0V43.89L56,42.19A1,1,0,0,1,56,41l.63-1H49.24l.63,1a1,1,0,0,1-.08,1.22Z"/></g><rect class="cls-3" width="80" height="80"/></svg>