<svg id="圖層_1" data-name="圖層 1" xmlns="http://www.w3.org/2000/svg" viewBox="0 0 80 80"><defs><style>.cls-1{fill:none;}.cls-2{fill:#50c98c;}.cls-3{fill:#3795c4;}</style></defs><rect class="cls-1" width="80" height="80"/><path class="cls-2" d="M54.63,62.11H26.37a1,1,0,0,1-1-1V30a1,1,0,0,1,1-1H54.63a1,1,0,0,1,1,1V61.11A1,1,0,0,1,54.63,62.11Zm-27.26-2H53.63V31H27.37Z"/><path class="cls-2" d="M54.5,41.4H26.6a1,1,0,0,1,0-2H54.5a1,1,0,0,1,0,2Z"/><path class="cls-2" d="M54.5,51.75H26.6a1,1,0,1,1,0-2H54.5a1,1,0,0,1,0,2Z"/><path class="cls-2" d="M35.69,62.21a1,1,0,0,1-1-1V30.13a1,1,0,1,1,2,0V61.21A1,1,0,0,1,35.69,62.21Z"/><path class="cls-2" d="M45.31,62.21a1,1,0,0,1-1-1V30.13a1,1,0,1,1,2,0V61.21A1,1,0,0,1,45.31,62.21Z"/><path class="cls-3" d="M61,25H54a5,5,0,0,1-5-5V13a1,1,0,0,1,.62-.92,1,1,0,0,1,1.09.21l11,11a1,1,0,0,1,.21,1.09A1,1,0,0,1,61,25ZM51,15.41V20a3,3,0,0,0,3,3h4.59Z"/><path class="cls-3" d="M57,68H24a5,5,0,0,1-5-5V17a5,5,0,0,1,5-5H50a1,1,0,0,1,.71.29l11,11A1,1,0,0,1,62,24V63A5,5,0,0,1,57,68ZM24,14a3,3,0,0,0-3,3V63a3,3,0,0,0,3,3H57a3,3,0,0,0,3-3V24.41L49.59,14Z"/></svg>