<svg id="圖層_1" data-name="圖層 1" xmlns="http://www.w3.org/2000/svg" viewBox="0 0 80 80"><defs><style>.cls-1{fill:none;}.cls-2{fill:#50c98c;}.cls-3{fill:#3795c4;}</style></defs><rect class="cls-1" width="80" height="80"/><path class="cls-2" d="M35.22,58.77c-7.68,0-14.74-4-15.61-4.51a1,1,0,0,1-.59-.91,1,1,0,0,1,1-1,1.12,1.12,0,0,1,.47.11c.22.13,13.45,8.12,23.12,2,3.91-2.46,5.76-5.91,7.72-9.57,2.73-5.12,5.8-10.86,15.08-14.56a47,47,0,0,0-16.62-3.95,1,1,0,0,1,.08-2,48.24,48.24,0,0,1,19.61,5.2,1,1,0,0,1,.52,1,1,1,0,0,1-.69.86C59,34.83,56,40.45,53.09,45.88c-2,3.73-4.05,7.58-8.42,10.33A17.53,17.53,0,0,1,35.22,58.77Z"/><path class="cls-3" d="M26.16,54.88a34.08,34.08,0,0,1-6.34-.55,1,1,0,0,1-.69-.51c-.08-.16-8.16-16,5.55-29.77,13-13,32.87-10,33.71-9.9a1,1,0,0,1,.46,1.77c-8.54,6.7-9.44,13-10.31,19.1-.6,4.18-1.21,8.51-4.38,12.58C39.45,53.66,31.66,54.88,26.16,54.88Zm-5.47-2.43c2.66.42,15.63,2,21.89-6.08,2.84-3.65,3.4-7.53,4-11.64.82-5.73,1.74-12.18,9.2-18.83-5.57-.35-19.94-.18-29.67,9.56C14.52,37.06,19.52,49.9,20.69,52.45Z"/><path class="cls-3" d="M17,69H17A1,1,0,0,1,16,67.94c0-.32,2.38-31.58,27.53-45.75a1,1,0,0,1,1,1.74C20.33,37.56,18,67.76,18,68.07A1,1,0,0,1,17,69Z"/></svg>