<svg id="圖層_1" data-name="圖層 1" xmlns="http://www.w3.org/2000/svg" viewBox="0 0 80 80"><defs><style>.cls-1{fill:#3795c4;}.cls-2{fill:#50c98c;}.cls-3{fill:none;}</style></defs><g id="naming"><path class="cls-1" d="M36.73,69.64a4.72,4.72,0,0,1-3.79-1.88,4.7,4.7,0,0,1,1-6.6l21.13-15.6A10.08,10.08,0,0,1,71.2,36.1a1,1,0,0,1,0,1.6l-5.65,4.15a1.12,1.12,0,0,0-.2.18,1.55,1.55,0,0,0,0,2.21,1.64,1.64,0,0,0,2,0l5.47-4a1,1,0,0,1,.89-.15,1,1,0,0,1,.65.62A10.07,10.07,0,0,1,60.56,53.14l-21,15.59h0A4.7,4.7,0,0,1,36.73,69.64Zm2.19-1.71h0ZM65.05,36a7.41,7.41,0,0,0-1,.07,8,8,0,0,0-5.36,3.07,8.09,8.09,0,0,0-1.51,6.65,1,1,0,0,1-.38,1l-21.64,16a2.72,2.72,0,0,0-.57,3.8,2.74,2.74,0,0,0,3.79.55l21.54-16A1,1,0,0,1,61,51.09,8.08,8.08,0,0,0,72,48a8.09,8.09,0,0,0,.93-5.29L68.61,45.9A3.66,3.66,0,0,1,64,45.71a3.56,3.56,0,0,1-.14-5.07,4.28,4.28,0,0,1,.45-.4L68.83,37A7.91,7.91,0,0,0,65.05,36Z"/><path class="cls-1" d="M42,57.38H13.75A4.45,4.45,0,0,1,9.3,52.93V31a1,1,0,0,1,.32-.73l5-4.68a1,1,0,0,1,.68-.27H53.63a1,1,0,0,1,.71.29L59,30.27a1,1,0,0,1,.29.71v6a1,1,0,0,1-2,0V31.4l-4.11-4.1H15.7l-4.4,4.12V52.93a2.45,2.45,0,0,0,2.45,2.45H42a1,1,0,0,1,0,2Z"/><path class="cls-1" d="M58.28,37.5H48.77a1,1,0,0,1,0-2h9.51a1,1,0,0,1,0,2Z"/><path class="cls-1" d="M42.48,37.5H26a1,1,0,1,1,0-2H42.48a1,1,0,0,1,0,2Z"/><path class="cls-1" d="M20,37.5H10.3a1,1,0,1,1,0-2H20a1,1,0,0,1,0,2Z"/><path class="cls-2" d="M26,41.7H20a1,1,0,0,1-1-1V32.53a1,1,0,0,1,1-1H26a1,1,0,0,1,1,1V40.7A1,1,0,0,1,26,41.7ZM21,39.7H25V33.53H21Z"/><path class="cls-2" d="M48.55,41.7H42.48a1,1,0,0,1-1-1V32.53a1,1,0,0,1,1-1h6.07a1,1,0,0,1,1,1V40.7A1,1,0,0,1,48.55,41.7Zm-5.07-2h4.07V33.53H43.48Z"/><path class="cls-1" d="M47.85,27a1,1,0,0,1-1-1V21.12a3.45,3.45,0,0,0-3.53-3.35H28.45a3.45,3.45,0,0,0-3.52,3.33V26a1,1,0,0,1-2,0V21.12a5.45,5.45,0,0,1,5.5-5.35h14.9a5.45,5.45,0,0,1,5.52,5.36V26A1,1,0,0,1,47.85,27Z"/></g><rect class="cls-3" width="80" height="80"/></svg>