<svg id="圖層_1" data-name="圖層 1" xmlns="http://www.w3.org/2000/svg" viewBox="0 0 80 80"><defs><style>.cls-1{fill:#3795c4;}.cls-2{fill:#50c98c;}.cls-3{fill:none;}</style></defs><path class="cls-1" d="M49.31,72.16A17.19,17.19,0,0,1,35.76,65.6a11.68,11.68,0,0,1-2.46-7.23,1,1,0,0,1,1-1h0a1,1,0,0,1,1,1,9.65,9.65,0,0,0,2,6,15.21,15.21,0,0,0,12,5.8h0A15.34,15.34,0,0,0,64.63,54.84V40.57a1,1,0,1,1,2,0V54.84a17.34,17.34,0,0,1-17.3,17.32Z"/><path class="cls-1" d="M50.6,28a1,1,0,0,1-1-1V15.09a2.35,2.35,0,0,0-2.34-2.35.68.68,0,0,1-.2,0l-6.93-1.36a1,1,0,0,1-.79-1.18,1,1,0,0,1,1.18-.78l6.84,1.34a4.36,4.36,0,0,1,4.24,4.35V27A1,1,0,0,1,50.6,28Z"/><path class="cls-1" d="M18,28a1,1,0,0,1-1-1V15.07a4.34,4.34,0,0,1,4.25-4.34L27.61,9.4a1,1,0,0,1,1.18.77A1,1,0,0,1,28,11.36l-6.48,1.35a1.36,1.36,0,0,0-.21,0h0A2.33,2.33,0,0,0,19,15.06V27A1,1,0,0,1,18,28Z"/><path class="cls-2" d="M65.57,40.24A6.25,6.25,0,1,1,71.82,34,6.26,6.26,0,0,1,65.57,40.24Zm0-10.5A4.25,4.25,0,1,0,69.82,34,4.25,4.25,0,0,0,65.57,29.74Z"/><path class="cls-2" d="M65.63,35.66A1.66,1.66,0,1,1,67.29,34,1.66,1.66,0,0,1,65.63,35.66Zm0-2A.34.34,0,1,0,66,34,.34.34,0,0,0,65.63,33.66Z"/><rect class="cls-3" width="80" height="80"/><path class="cls-1" d="M36.7,60.88H31.3a1,1,0,0,1-1-1V47.28a1,1,0,0,1,1-1h5.4a1,1,0,0,1,1,1v12.6A1,1,0,0,1,36.7,60.88Zm-4.4-2h3.4V48.28H32.3Z"/><path class="cls-1" d="M34,48.28a19.92,19.92,0,0,1-19.9-19.9,1,1,0,0,1,1-1h4.5a1,1,0,0,1,1,1,13.4,13.4,0,0,0,26.8,0,1,1,0,0,1,1-1h4.5a1,1,0,0,1,1,1A19.93,19.93,0,0,1,34,48.28ZM16.12,29.38a17.9,17.9,0,0,0,35.75,0H49.36a15.4,15.4,0,0,1-30.73,0Z"/></svg>