<svg id="圖層_1" data-name="圖層 1" xmlns="http://www.w3.org/2000/svg" viewBox="0 0 80 80"><defs><style>.cls-1{fill:#3795c4;}.cls-2{fill:none;}.cls-3{fill:#50c98c;}</style></defs><path class="cls-1" d="M44.39,57.65H26.74a1,1,0,0,1,0-2H44.39a1,1,0,0,1,0,2Z"/><path class="cls-1" d="M44.39,52.75H26.74a1,1,0,1,1,0-2H44.39a1,1,0,0,1,0,2Z"/><rect class="cls-2" width="80" height="80"/><path class="cls-1" d="M35.56,31.2a4.61,4.61,0,1,1,4.73-4.61A4.67,4.67,0,0,1,35.56,31.2Zm0-7.22a2.61,2.61,0,1,0,2.73,2.61A2.67,2.67,0,0,0,35.56,24Z"/><path class="cls-3" d="M51,62.89l-1-1.74,15.94-8.93a.76.76,0,0,0,.39-.49.72.72,0,0,0-.08-.59L48.45,21.3A2.68,2.68,0,0,0,46.62,20l-6.76-1.29.37-2L47,18.07a4.71,4.71,0,0,1,3.17,2.2L67.94,50.12a2.72,2.72,0,0,1,.29,2.14A2.77,2.77,0,0,1,66.89,54Z"/><path class="cls-1" d="M48.6,65.49H22.53a2.83,2.83,0,0,1-2.86-2.8V28.23a4.59,4.59,0,0,1,1.62-3.49l12.4-10.51a2.9,2.9,0,0,1,3.74,0l12.4,10.52a4.53,4.53,0,0,1,1.63,3.48V62.69A2.83,2.83,0,0,1,48.6,65.49Zm-13-49.94a.9.9,0,0,0-.58.21L22.58,26.27a2.57,2.57,0,0,0-.91,2V62.69a.84.84,0,0,0,.86.8H48.6a.84.84,0,0,0,.86-.8V28.23a2.59,2.59,0,0,0-.92-2L36.14,15.76A.88.88,0,0,0,35.56,15.55Z"/></svg>